<svg xmlns="http://www.w3.org/2000/svg" viewBox="0 0 128 128">
  <defs>
    <linearGradient id="grad" x1="0%" y1="0%" x2="100%" y2="100%">
      <stop offset="0%" style="stop-color:#6C5CE7"/>
      <stop offset="100%" style="stop-color:#a855f7"/>
    </linearGradient>
  </defs>
  <!-- Background circle -->
  <circle cx="64" cy="64" r="60" fill="url(#grad)" stroke="#1a1a2e" stroke-width="4"/>
  <!-- Book icon -->
  <g fill="none" stroke="white" stroke-width="4" stroke-linecap="round" stroke-linejoin="round">
    <!-- Book cover -->
    <path d="M32 36 C32 32, 36 28, 44 28 L84 28 C92 28, 96 32, 96 36 L96 92 C96 96, 92 100, 84 100 L44 100 C36 100, 32 96, 32 92 Z"/>
    <!-- Book spine -->
    <path d="M64 28 L64 100"/>
    <!-- Left page lines -->
    <path d="M40 44 L56 44"/>
    <path d="M40 56 L56 56"/>
    <path d="M40 68 L56 68"/>
    <!-- Right page lines -->
    <path d="M72 44 L88 44"/>
    <path d="M72 56 L88 56"/>
    <path d="M72 68 L88 68"/>
  </g>
  <!-- Stethoscope hint -->
  <circle cx="96" cy="88" r="12" fill="#FFD93D" stroke="#1a1a2e" stroke-width="2"/>
  <text x="96" y="94" font-size="14" text-anchor="middle" fill="#1a1a2e">+</text>
</svg>
